<svg width="256" height="256" viewBox="0 0 256 256" fill="none" xmlns="http://www.w3.org/2000/svg">
  <defs>
    <linearGradient id="bg" x1="28" y1="24" x2="224" y2="232" gradientUnits="userSpaceOnUse">
      <stop stop-color="#1E6B43"/>
      <stop offset="0.58" stop-color="#2F8A4D"/>
      <stop offset="1" stop-color="#E3B23C"/>
    </linearGradient>
    <linearGradient id="leaf" x1="136" y1="64" x2="184" y2="140" gradientUnits="userSpaceOnUse">
      <stop stop-color="#F7F8E8"/>
      <stop offset="1" stop-color="#D9F0C7"/>
    </linearGradient>
  </defs>
  <rect x="20" y="20" width="216" height="216" rx="56" fill="url(#bg)"/>
  <circle cx="128" cy="128" r="74" fill="rgba(255,255,255,0.08)"/>
  <path d="M70 151C84 134 104 124 128 124C152 124 172 134 186 151" stroke="#F8F4E7" stroke-width="10" stroke-linecap="round"/>
  <path d="M80 175C94 160 111 152 128 152C145 152 162 160 176 175" stroke="#F8F4E7" stroke-width="10" stroke-linecap="round" opacity="0.9"/>
  <path d="M128 182L128 97" stroke="#F8F4E7" stroke-width="10" stroke-linecap="round"/>
  <path d="M135 71C162 71 184 92 184 119C157 119 135 97 135 71Z" fill="url(#leaf)"/>
  <path d="M147 82C155 91 161 102 164 114" stroke="#2F8A4D" stroke-width="4" stroke-linecap="round"/>
</svg>
